<svg clip-rule="evenodd" fill-rule="evenodd" stroke-linejoin="round" stroke-miterlimit="2" viewBox="0 0 32 32" xmlns="http://www.w3.org/2000/svg"><path d="m29.44 18.16c1.036-2.764.652-5.86-1.03-8.286-1.681-2.427-4.445-3.874-7.397-3.874h-10.026c-2.952 0-5.716 1.447-7.397 3.874-1.682 2.426-2.066 5.522-1.03 8.286 1.191 3.177 2.377 6.339 3.223 8.596.732 1.951 2.598 3.244 4.682 3.244h.464c1.326 0 2.598-.527 3.535-1.464.762-.762 1.536-1.536 1.536-1.536s.774.774 1.536 1.536c.937.937 2.209 1.464 3.535 1.464h.464c2.084 0 3.95-1.293 4.682-3.244.846-2.257 2.032-5.419 3.223-8.596z" fill="#db3328"/><path d="m15.469 5h-4.482c-3.28 0-6.351 1.608-8.219 4.304-1.868 2.696-2.296 6.136-1.144 9.207 1.191 3.177 2.377 6.34 3.223 8.596.878 2.342 3.117 3.893 5.618 3.893h.464c1.591 0 3.117-.632 4.243-1.757 0 0 .828-.829.828-.829l.828.829c1.126 1.125 2.652 1.757 4.243 1.757h.464c2.501 0 4.74-1.551 5.618-3.893.846-2.256 2.032-5.419 3.223-8.596 1.152-3.071.724-6.511-1.144-9.207s-4.939-4.304-8.219-4.304h-3.402c.46-1.011 1.219-1.837 2.52-2.009.547-.072.933-.575.86-1.122-.072-.547-.575-.933-1.122-.86-2.43.321-3.747 2.003-4.4 3.991zm1.575 2c-.171 1.069-.172 2.112-.138 2.844.485-.116 1.005-.329 1.549-.683.463-.3 1.083-.168 1.384.294.3.463.168 1.083-.294 1.384-4.021 2.61-7.182-.068-7.182-.068-.425-.351-.486-.982-.134-1.408.351-.425.982-.486 1.408-.134 0 0 .479.381 1.273.592-.029-.757-.021-1.765.118-2.821h-4.041c-2.624 0-5.081 1.287-6.575 3.443-1.495 2.157-1.837 4.909-.916 7.366 0 0 3.224 8.595 3.224 8.596.585 1.561 2.078 2.595 3.745 2.595h.464c1.061 0 2.078-.421 2.828-1.172l1.536-1.535c.39-.391 1.024-.391 1.414 0 0 0 1.536 1.535 1.536 1.535.75.751 1.767 1.172 2.828 1.172h.464c1.667 0 3.16-1.034 3.745-2.596l3.224-8.595c.921-2.457.579-5.209-.916-7.366-1.494-2.156-3.951-3.443-6.575-3.443zm5.787 4.47s.746.151 1.352.862c.462.541.817 1.386.817 2.668 0 .552.448 1 1 1s1-.448 1-1c0-1.918-.605-3.158-1.295-3.967-1.122-1.313-2.536-1.534-2.536-1.534-.544-.093-1.061.272-1.155.816-.093.544.273 1.062.817 1.155z" fill="#421e01"/></svg>