<svg id="Capa_1" enable-background="new 0 0 64 64" height="512" viewBox="0 0 64 64" width="512" xmlns="http://www.w3.org/2000/svg"><g><path d="m58 30v.01 4.99c-2.76 0-5 2.24-5 5s2.24 5 5 5v1 .02c0 2.57-9.88 5.13-21.18 6.64-.59-2.11-2.52-3.66-4.82-3.66-2.64 0-4.81 2.06-4.98 4.66-3.14.24-6.2.36-9.02.36-5.05-.01-7.98-2.14-9.66-4.6 1.58-.84 2.66-2.51 2.66-4.42 0-2.76-2.24-5-5-5v-14z" fill="#fce368"/><path d="m44.49 35.42c.93.91 1.51 2.18 1.51 3.58 0 2.76-2.24 5-5 5s-5-2.24-5-5c0-.83.2-1.62.57-2.31" fill="#f4ae69"/><circle cx="21" cy="43" fill="#f4ae69" r="5"/><g><g><path d="m58 30.01c0 4-24.01 8.01-40.01 8-11.99-.02-11.99-12.01-11.99-12.01s0-12 12-12c16 0 40 12 40 16.01z" fill="#fce368"/></g></g></g><path d="m59 30c0-5.41-25.74-17-41-17-12.85 0-13 12.86-13 13v.1 13.9c0 .55.45 1 1 1 2.21 0 4 1.79 4 4 0 1.48-.82 2.84-2.13 3.54-.25.13-.43.37-.5.64-.07.28-.02.57.15.8 1.56 2.29 4.65 5.02 10.49 5.04 2.89 0 5.95-.12 9.1-.36.5-.04.89-.44.92-.93.12-2.09 1.87-3.73 3.97-3.73 1.79 0 3.38 1.2 3.86 2.93.13.48.6.79 1.1.72 8.23-1.1 22.04-3.55 22.04-7.65v-1c0-.55-.45-1-1-1-2.21 0-4-1.79-4-4s1.79-4 4-4c.55 0 1-.45 1-1v-4.85c0-.05 0-.1 0-.15zm-41-15c6.85 0 16.42 2.4 25.6 6.42 9.35 4.09 13.4 7.66 13.4 8.58v.01c-.02.44-2.29 2.47-13.19 4.51-8.15 1.53-18 2.47-25.73 2.47-.03 0-.05 0-.08 0-10.36 0-10.97-9.63-11-10.87v-.12-.01c0-.51.16-10.99 11-10.99zm19.25 22.6c2.35-.32 4.66-.68 6.85-1.09.57.71.9 1.57.9 2.49 0 2.21-1.79 4-4 4s-4-1.79-4-4c0-.49.09-.96.25-1.4zm-16.25 1.4c2.21 0 4 1.79 4 4s-1.79 4-4 4-4-1.79-4-4 1.79-4 4-4zm31 1c0 2.97 2.17 5.44 5 5.92v.1c0 1-5.74 3.63-19.52 5.54-.95-2.13-3.1-3.56-5.48-3.56-2.85 0-5.27 2.01-5.86 4.72-2.81.2-5.55.3-8.14.3-3.57-.01-6.33-1.14-8.22-3.36 1.39-1.13 2.22-2.83 2.22-4.66 0-2.97-2.17-5.44-5-5.92v-5.94c1.59 2.78 4.46 5.39 9.59 5.8-.98 1.07-1.59 2.49-1.59 4.06 0 3.31 2.69 6 6 6s6-2.69 6-6c0-1.65-.67-3.15-1.75-4.23 3.22-.19 6.56-.49 9.87-.9-.07.37-.12.75-.12 1.13 0 3.31 2.69 6 6 6s6-2.69 6-6c0-1.04-.26-2.03-.76-2.92 5.88-1.22 9.05-2.42 10.76-3.44v1.44c-2.83.48-5 2.95-5 5.92z"/></svg>