<svg clip-rule="evenodd" fill-rule="evenodd" height="512" image-rendering="optimizeQuality" shape-rendering="geometricPrecision" text-rendering="geometricPrecision" viewBox="0 0 43.3492 43.3492" width="512" xmlns="http://www.w3.org/2000/svg"><g id="Layer_x0020_1"><g id="_297326064"><g><path id="_297327024" d="m6.8923.9464c-3.2786 0-5.9459 2.6674-5.9459 5.946v29.5646c0 3.2785 2.6673 5.9459 5.9459 5.9459l29.5646-.0002c3.2786 0 5.946-2.6671 5.946-5.9456v-29.5649c0-3.2785-2.6674-5.9458-5.946-5.9458h-29.5646zm29.5646 42.4028h-29.5646c-3.8005 0-6.8924-3.0918-6.8924-6.8921v-29.5649c0-3.8003 3.0919-6.8922 6.8924-6.8922l29.5646-.0001c3.8004 0 6.8924 3.0921 6.8924 6.8925v29.5646c0 3.8002-3.092 6.8923-6.8924 6.8922z"/><path id="_297327000" d="m21.6746 4.6482c-9.0636 0-16.4374 7.6382-16.4374 17.0265 0 9.3882 7.3738 17.0263 16.4373 17.0263 9.0637-.0001 16.4375-7.638 16.4375-17.0263 0-9.3885-7.3738-17.0264-16.4374-17.0265zm0 34.9992c-9.5855 0-17.3839-8.0624-17.3839-17.9727 0-9.9104 7.7984-17.9728 17.3838-17.9728 9.5856-.0002 17.384 8.0625 17.384 17.9728 0 9.9101-7.7985 17.9728-17.3839 17.9727z"/><path id="_297326976" d="m21.6746 10.4183c-.2614 0-.4733-.2119-.4733-.4731v-3.4587c0-.2616.2119-.4732.4732-.4732.2614-.0002.4733.2118.4733.4732v3.4586c0 .2613-.2119.4732-.4732.4732z"/><path id="_297326880" d="m31.0659 12.7565c-.1212 0-.2423-.046-.3347-.1384-.1848-.185-.1848-.4845 0-.6692l.9111-.9111c.1847-.185.4843-.1848.6692 0 .1848.1846.1847.4844 0 .6692l-.911.9111c-.0924.0923-.2136.1386-.3346.1384z"/><path id="_297326952" d="m31.9769 32.4499c-.1212 0-.2422-.0459-.3346-.1384l-.9111-.911c-.1848-.1848-.1848-.4844 0-.6692.1848-.185.4845-.1849.6693 0l.911.911c.1848.1848.1847.4845 0 .6692-.0924.0923-.2135.1386-.3346.1384z"/><path id="_297326328" d="m11.3723 32.4499c-.121 0-.2422-.0459-.3346-.1384-.1848-.1848-.1848-.4843 0-.6692l.9111-.911c.1847-.185.4844-.1849.6692 0 .1847.1847.1847.4844 0 .6693l-.9111.9109c-.0924.0923-.2134.1386-.3346.1384z"/><path id="_297326832" d="m12.2834 12.7565c-.1212 0-.2423-.046-.3346-.1384l-.9111-.9113c-.1848-.1847-.1848-.4842 0-.669.1848-.185.4845-.1848.6692 0l.9111.9111c.1847.1847.1847.4843 0 .6692-.0924.0923-.2136.1386-.3346.1384z"/><path id="_297325848" d="m36.8628 22.1478h-3.4586c-.2614 0-.4733-.2118-.4733-.4731 0-.2615.2119-.4733.4732-.4733l3.4587-.0001c.2614 0 .4731.212.4731.4734 0 .2613-.2117.4732-.4731.4731z"/><path id="_297326256" d="m21.6746 37.336c-.2614 0-.4733-.2118-.4733-.4732v-3.4586c0-.2613.2119-.4732.4732-.4732.2614-.0002.4733.2119.4733.4733v3.4584c0 .2615-.2119.4734-.4732.4733z"/><path id="_297326160" d="m9.945 22.1478h-3.4586c-.2613 0-.4732-.2118-.4732-.4731 0-.2615.2119-.4733.4732-.4733l3.4586-.0001c.2613 0 .4732.212.4732.4734 0 .2613-.2119.4732-.4732.4731z"/><path id="_297325536" d="m28.0788 24.2551-.707-.6293 1.2602-1.4159-6.9563.0153c-.0003 0-.0007.0002-.0009.0002-.1253-.0002-.2453-.0496-.3341-.1379-.0889-.0887-.139-.2089-.1392-.3344l-.0159-8.0483-1.2523.8263c-.2182.1437-.5117.0838-.6556-.1343-.1439-.2182-.0838-.5118.1343-.6557l1.9754-1.3031c.0225-.0158.0462-.0292.0709-.0405.0635-.0296.1312-.0438.1983-.0438.0003 0 .0005-.0001.0009 0 .0668 0 .1343.0141.1976.0434.0249.0114.0489.0251.0717.0409l1.9752 1.3032c.2181.144.2783.4375.1343.6556-.1438.2179-.4375.2784-.6556.1344l-1.2487-.8239.015 7.5705 6.4892-.0144-1.2644-1.4205c-.1738-.1952-.1563-.4944.0389-.6681.1954-.1738.4944-.1563.6681.0388l1.9634 2.2062c.0789.0885.1184.1988.1197.3088.0003.0197-.0007.0396-.003.0593 0 .0001 0 .0004-.0001.0006.0001-.0002 0 .0001 0 .0001-.0109.0953-.0507.1878-.1186.2628z"/></g><path id="_297325920" d="m21.6745 3.7019c9.5856-.0002 17.3839 8.0625 17.3839 17.9728 0 9.9102-7.7983 17.9728-17.3838 17.9727-9.5855 0-17.3838-8.0624-17.3838-17.9727 0-9.9104 7.7983-17.9728 17.3837-17.9728zm-20.7281 3.1905v29.5646c0 3.2785 2.6673 5.9459 5.9459 5.9459l29.5646-.0002c3.2786 0 5.9459-2.6671 5.9459-5.9456l.0001-29.5649c0-3.2786-2.6674-5.9457-5.946-5.9457h-29.5646c-3.2786 0-5.9459 2.6673-5.9459 5.9459z" fill="#f8bbd0"/><path id="_297325752" d="m38.112 21.6747c0-9.3884-7.3738-17.0264-16.4374-17.0265-9.0636 0-16.4374 7.6381-16.4374 17.0265 0 9.3882 7.3738 17.0263 16.4373 17.0263 9.0637-.0001 16.4375-7.638 16.4375-17.0263zm-10.7013-2.4999c.1954-.1738.4944-.1563.6681.0388l1.9634 2.2062c.1226.1376.1308.3439.1166.3688-.0109.0952-.0507.1878-.1186.2628l-1.9614 2.2037-.7069-.6293 1.2601-1.4159-6.9563.0154c-.2621.0002-.4737-.2112-.4742-.4722l-.0159-8.0483-1.2523.8263c-.2182.1437-.5117.0838-.6556-.1343-.1439-.2182-.0838-.5118.1344-.6557l2.0462-1.3436c.154-.0714.3275-.0547.4685.0405l1.9752 1.3032c.2181.144.2783.4375.1343.6556-.1438.2179-.4375.2784-.6556.1344l-1.2487-.8239.015 7.5706 6.4891-.0145-1.2642-1.4205c-.1739-.1952-.1564-.4944.0388-.6681zm3.3205-6.5567c-.1848-.185-.1848-.4845 0-.6692l.9111-.9111c.1848-.185.4843-.1848.6692 0 .1848.1846.1848.4844 0 .6692l-.911.9111c-.0924.0923-.2136.1386-.3346.1384-.1212 0-.2423-.046-.3347-.1384zm2.6729 8.5834 3.4587-.0002c.2614 0 .4731.212.4731.4734 0 .2613-.2117.4732-.4731.4731h-3.4586c-.2614 0-.4733-.2118-.4733-.4731 0-.2615.2119-.4732.4732-.4732zm-11.2563-14.715v3.4586c0 .2613-.2119.4732-.4732.4732-.2614 0-.4733-.2119-.4733-.4731v-3.4587c0-.2616.2119-.4732.4732-.4732.2614-.0002.4733.2118.4733.4732zm-15.6614 14.715 3.4586-.0002c.2613 0 .4732.212.4732.4734 0 .2613-.2119.4732-.4732.4731h-3.4586c-.2613 0-.4732-.2118-.4732-.4731 0-.2615.2119-.4732.4732-.4732zm6.1316-9.2527c.1847.1848.1847.4844 0 .6693-.0924.0923-.2136.1386-.3346.1384-.1212 0-.2423-.046-.3346-.1384l-.9111-.9113c-.1848-.1847-.1848-.4842 0-.669.1848-.185.4845-.1848.6692 0zm9.5298 21.4555v3.4584c0 .2615-.2119.4734-.4732.4733-.2614 0-.4733-.2118-.4733-.4731v-3.4587c0-.2613.2119-.4732.4732-.4732.2614-.0002.4733.2119.4733.4733zm-10.199-2.6731c.1847-.185.4844-.1848.6692 0 .1847.1848.1847.4845 0 .6694l-.9111.9109c-.0924.0923-.2134.1386-.3346.1385-.121 0-.2422-.046-.3346-.1385-.1848-.1847-.1848-.4843 0-.6692zm19.4516 0 .9111.9111c.1848.1848.1848.4845 0 .6692-.0924.0923-.2135.1386-.3346.1385-.1212 0-.2422-.046-.3346-.1385l-.9111-.911c-.1848-.1848-.1848-.4844 0-.6693.1848-.185.4845-.1848.6692 0z" fill="#c8e3f8"/></g></g></svg>