<svg height="512" viewBox="0 0 64 64" width="512" xmlns="http://www.w3.org/2000/svg"><g id="Garlic"><path d="m31.65869 61.63184a13.25625 13.25625 0 0 1 -7.54346-2.6084l-.76806-.523-.57764.72754a5.428 5.428 0 0 1 -4.5293 1.832 6.2962 6.2962 0 0 1 -5.39013-2.70459l-.2876-.418-.50732-.01465a11.03805 11.03805 0 0 1 -8.01954-3.15576c-3.21289-3.38417-2.98828-8.32606-2.98584-8.37538 0-14.52392 9.06446-19.71777 9.4502-19.93164 10.59766-6.51855 15.73-12.00342 15.73-16.79v-1.04984a5.11972 5.11972 0 0 1 2.81982-4.5503l4.91018-2.43994a1.94394 1.94394 0 0 1 1.90039.09326 1.93941 1.93941 0 0 1 .91992 1.65674v6.29c0 4.78321 5.14844 10.27539 15.73975 16.79.39551.21973 8.73633 4.97266 9.39014 18.27a43.82842 43.82842 0 0 1 -8.41358 1.30957c-7.02051.63721-13.08056 1.1875-13.83056 8.45361l-.00586.05664.00048.05713a9.432 9.432 0 0 0 .6792 3.583c-2.97465 2.31603-5.81449 3.44201-8.68119 3.44201z" fill="#fff3d7"/><path d="m48.02734 62.55078a9.31336 9.31336 0 0 1 -5.60986-1.67236c-1.80615-1.373-2.73389-3.502-2.75732-6.32764.72363-7.32764 7.08886-7.90234 13.82763-8.51123a37.85765 37.85765 0 0 0 9.46143-1.65234c0 9.32617-4.04395 15.32031-12.019 17.81592a11.8737 11.8737 0 0 1 -2.90288.34765z" fill="#f2ddbb"/><path d="m62.91205 45.72845c-1.61438 4.87623-4.5343 7.77055-11.72205 10.20155a15.23108 15.23108 0 0 1 -6.2.85 4.43282 4.43282 0 0 1 -3.50848 3.212 6.49793 6.49793 0 0 0 .936.88642 9.31336 9.31336 0 0 0 5.60986 1.67236 11.8737 11.8737 0 0 0 2.90284-.34765c7.584-2.37323 11.60488-7.91688 11.98183-16.47468z" fill="#e0c7a2"/><path d="m41.48242 60.01318a8.06152 8.06152 0 0 1 -1.82226-5.4624 9.23121 9.23121 0 0 1 .97558-3.46582l.87207.165a4.45791 4.45791 0 0 1 .95166 8.46973 4.33456 4.33456 0 0 1 -.97705.29349z" fill="#d6b690"/><g fill="#423f47"><path d="m20.60052 28.74268-.625 1.25683a1.00012 1.00012 0 0 0 1.791.89063l.625-1.25684a1.00012 1.00012 0 1 0 -1.791-.89062z"/><path d="m48.13031 43.34424a1 1 0 1 0 1.56738-1.24219c-.55176-.69678-1.15234-1.31787-1.73291-1.91846a12.5679 12.5679 0 0 1 -3.91943-6.60546 1.0002 1.0002 0 1 0 -1.9502.44531 14.58838 14.58838 0 0 0 4.43213 7.55078c.57178.59131 1.1123 1.15039 1.60303 1.77002z"/><path d="m35.8139 59.75146c-3.91516 1.61463-7.78186.93995-11.81128-2.04364-.43591-.77862-2.46588-4.97973-.39673-12.58233.00269-.00995-.00042-.01966.002-.02966.00287-.012.01068-.02118.01318-.03333a25.40866 25.40866 0 0 1 2.07617-4.584c2.07813-4.03272 4.92481-9.55616 4.81055-14.21778a.98154.98154 0 0 0 -1.02393-.9751.9992.9992 0 0 0 -.97509 1.02393c.10156 4.15088-2.60987 9.41162-4.58936 13.25293a25.824 25.824 0 0 0 -2.24115 5.03363l-.002.004c-2.09 7.6784-.3108 12.32666.4461 13.82519-.37317.56488-1.40423 1.62989-3.88409 1.62989a5.30943 5.30943 0 0 1 -4.69342-2.46509c-2.11614-10.78529.22215-13.21455 2.93215-16.01686a14.59351 14.59351 0 0 0 4.43213-7.5498 1.0002 1.0002 0 1 0 -1.9502-.44531 12.56793 12.56793 0 0 1 -3.91943 6.60449c-2.74921 2.84332-5.574 5.8042-3.65253 16.704a9.76221 9.76221 0 0 1 -6.615-2.79627c-2.90772-3.05078-2.72412-7.60351-2.7207-7.69922 0-13.87451 8.56445-18.85595 8.96484-19.08252 10.91016-6.71093 16.21387-12.48 16.21387-17.63671v-1.05081a4.05693 4.05693 0 0 1 2.2622-3.65136l4.91016-2.44141a.95008.95008 0 0 1 1.37451.84668v6.29688c0 5.15771 5.30274 10.92675 16.24707 17.65771.06153.03467 6.18994 3.57812 8.24658 12.67627a1.00024 1.00024 0 0 0 1.95118-.44141c-2.26368-10.01172-8.94043-13.82422-9.18555-13.959-10.12555-6.22845-15.25934-11.58934-15.25934-15.93357v-6.29688a2.95035 2.95035 0 0 0 -4.26514-2.6377l-4.91065 2.4419a6.04532 6.04532 0 0 0 -3.37109 5.44189v1.05079c0 4.34326-5.13477 9.7041-15.22364 15.91113-.40627.22558-9.95506 5.70556-9.9536 20.75586-.01172.22021-.24121 5.43066 3.25684 9.11621a11.99326 11.99326 0 0 0 8.71728 3.46728 7.33082 7.33082 0 0 0 6.21143 3.13282 6.38807 6.38807 0 0 0 5.30957-2.20948 14.44956 14.44956 0 0 0 8.145 2.75635 12.72083 12.72083 0 0 0 4.88379-1.002.9999.9999 0 1 0 -.7627-1.84864z"/><path d="m30.99457 9.707a1.00005 1.00005 0 0 0 -.99857 1.0015 45.90543 45.90543 0 0 1 -.55762 7.19775.99992.99992 0 0 0 .832 1.14355 1.01134 1.01134 0 0 0 .15723.01221 1.00008 1.00008 0 0 0 .98633-.84424 47.96191 47.96191 0 0 0 .582-7.5122 1.00005 1.00005 0 0 0 -1-.99854z"/><path d="m63.9346 44.33365a1.0792 1.0792 0 0 0 -.24551-.60477c-.4198-.46516-1.17252-.27648-1.76792-.08128a31.68453 31.68453 0 0 1 -6.93617 1.25433c-2.36272.22221-4.73933.36469-7.076.79957a29.70374 29.70374 0 0 0 -3.28515.87128 8.16521 8.16521 0 0 0 -2.63254 1.3858 8.53527 8.53527 0 0 0 -2.1736 2.53078 9.31135 9.31135 0 0 0 -.91565 6.506 8.21139 8.21139 0 0 0 2.17258 4.07914 9.56732 9.56732 0 0 0 6.71454 2.41831 15.32451 15.32451 0 0 0 8.9846-2.95174 16.91921 16.91921 0 0 0 5.74855-7.5457 23.57212 23.57212 0 0 0 1.43106-8.18264 3.44036 3.44036 0 0 0 -.01879-.47908zm-22.61484 7.89926a3.45415 3.45415 0 0 1 .54639 6.64014 7.449 7.449 0 0 1 -1.20948-4.27735 9.0536 9.0536 0 0 1 .55732-2.38287zm9.34717 9.00439a9.90418 9.90418 0 0 1 -7.2381-.89929 5.4679 5.4679 0 0 0 2.22778-2.51648 16.67106 16.67106 0 0 0 5.8487-.94067c4.915-1.66846 7.81347-3.65967 9.67187-6.14453-1.4414 5.29199-4.92187 8.75146-10.51025 10.50097zm.1958-6.25a14.996 14.996 0 0 1 -4.74292.8418c.00244-.06628.01733-.12958.01733-.19629a5.44644 5.44644 0 0 0 -3.86987-5.20324c2.06665-2.39692 5.96466-2.91169 11.3064-3.39441a49.39422 49.39422 0 0 0 7.86963-1.13623c-1.43018 4.13281-3.8613 6.80712-10.58057 9.08837z"/><path d="m35.82025 17.53516a1 1 0 0 0 -2 0c0 11.65185 2.0166 15.60839 6.43506 24.27734.38867.7627.79638 1.5625 1.22314 2.4082a.99991.99991 0 0 0 1.78516-.90136c-.42774-.84815-.83692-1.64991-1.22656-2.415-4.26856-8.37504-6.2168-12.19734-6.2168-23.36918z"/></g></g></svg>