<svg height="512" viewBox="0 0 64 64" width="512" xmlns="http://www.w3.org/2000/svg"><g id="_14-Meat" data-name="14-Meat"><path d="m3 34v6a14 14 0 0 0 14 14h25a19 19 0 0 0 19-19v-6z" fill="#fc6067"/><path d="m42 48h-25a14 14 0 0 1 0-28c3.92 0 8.71-1.53 11.46-4.32a19 19 0 0 1 32.54 13.32 19 19 0 0 1 -19 19z" fill="#fc9097"/><path d="m42 44a15 15 0 1 0 -10.69-25.52c-3.31 3.35-8.91 5.52-14.31 5.52a10 10 0 0 0 0 20z" fill="#fc6067"/><circle cx="42" cy="29" fill="#e7eaef" r="4"/><path d="m43.87 43.87a15 15 0 0 0 -.06-29.75 16 16 0 0 1 .06 29.75z" fill="#fb4b5b"/><path d="m17 45h25a16 16 0 1 0 -11.41-27.22c-3.11 3.22-8.45 5.22-13.59 5.22a11 11 0 0 0 0 22zm0-20c5.65 0 11.55-2.28 15-5.82a14 14 0 1 1 10 23.82h-25a9 9 0 0 1 0-18z"/><path d="m42 34a5 5 0 1 0 -5-5 5 5 0 0 0 5 5zm0-8a3 3 0 1 1 -3 3 3 3 0 0 1 3-3z"/><path d="m42 9a19.84 19.84 0 0 0 -14.26 6c-2.33 2.35-6.74 4-10.74 4a14.93 14.93 0 0 0 -8.67 2.77 1 1 0 0 0 1.16 1.63 12.91 12.91 0 0 1 7.51-2.4c3.8 0 9-1.43 12.17-4.62a18 18 0 1 1 12.83 30.62 1 1 0 0 0 0 2 20 20 0 0 0 17.68-10.68 18 18 0 0 1 -17.68 14.68h-25a13 13 0 0 1 -12.88-11.36 15 15 0 0 0 12.88 7.36h21a1 1 0 0 0 0-2h-21a13 13 0 0 1 -13-13 12.87 12.87 0 0 1 2.8-8 1 1 0 0 0 -1.57-1.24 14.87 14.87 0 0 0 -3.23 9.24v6a15 15 0 0 0 15 15h25a20 20 0 0 0 20-20v-6a20 20 0 0 0 -20-20z"/></g></svg>