<?xml version="1.0" encoding="UTF-8" standalone="no"?>
<!-- Created with Inkscape (http://www.inkscape.org/) -->

<svg
   version="1.1"
   id="svg8577"
   xml:space="preserve"
   width="682.66669"
   height="682.66669"
   viewBox="0 0 682.66669 682.66669"
   xmlns="http://www.w3.org/2000/svg"
   xmlns:svg="http://www.w3.org/2000/svg"><defs
     id="defs8581"><clipPath
       clipPathUnits="userSpaceOnUse"
       id="clipPath8591"><path
         d="M 0,512 H 512 V 0 H 0 Z"
         id="path8589" /></clipPath></defs><g
     id="g8583"
     transform="matrix(1.3333333,0,0,-1.3333333,0,682.66667)"><g
       id="g8585"><g
         id="g8587"
         clip-path="url(#clipPath8591)"><g
           id="g8593"
           transform="translate(340.4678,91.9677)"><path
             d="m 0,0 c 0,-46.65 -37.817,-84.468 -84.468,-84.468 -46.65,0 -84.468,37.818 -84.468,84.468 0,46.649 37.818,159.06 84.468,159.06 C -37.817,159.06 0,46.649 0,0"
             style="fill:#efd4bf;fill-opacity:1;fill-rule:nonzero;stroke:none"
             id="path8595" /></g><g
           id="g8597"
           transform="translate(256,251.0273)"><path
             d="M 0,0 C -40.415,0 -74.198,-84.358 -82.508,-137.245 -2.095,-146.932 48.57,-124.898 75.69,-106.433 61.87,-56.82 33.168,0 0,0"
             style="fill:#e0c1ad;fill-opacity:1;fill-rule:nonzero;stroke:none"
             id="path8599" /></g><g
           id="g8601"
           transform="translate(426.3789,271.0517)"><path
             d="m 0,0 c 0,-54.766 -76.281,-99.162 -170.379,-99.162 -94.098,0 -170.379,44.396 -170.379,99.162 0,54.766 76.281,99.162 170.379,99.162 C -76.281,99.162 0,54.766 0,0"
             style="fill:#fce6d4;fill-opacity:1;fill-rule:nonzero;stroke:none"
             id="path8603" /></g><g
           id="g8605"
           transform="translate(256,370.2138)"><path
             d="m 0,0 c -94.098,0 -170.379,-44.396 -170.379,-99.162 0,-53.033 71.53,-96.341 161.502,-99.029 -14.842,27.496 5.1,62.222 37.569,62.298 62.875,0.147 99.175,-8.117 117.456,-14.268 15.385,14.901 24.231,32.349 24.231,50.999 C 170.379,-44.396 94.098,0 0,0"
             style="fill:#efd4bf;fill-opacity:1;fill-rule:nonzero;stroke:none"
             id="path8607" /></g><g
           id="g8609"
           transform="translate(23.1641,349.6952)"><path
             d="m 0,0 c -23.291,-47.901 16.794,-102.345 69.502,-94.673 50.696,7.379 111.548,14.196 163.334,14.196 51.786,0 112.638,-6.817 163.334,-14.196 52.708,-7.672 92.793,46.772 69.502,94.673 C 430.119,73.12 361.589,154.805 232.836,154.805 104.083,154.805 35.553,73.12 0,0"
             style="fill:#dd9f80;fill-opacity:1;fill-rule:nonzero;stroke:none"
             id="path8611" /></g><g
           id="g8613"
           transform="translate(256,504.4999)"><path
             d="m 0,0 c -128.753,0 -197.283,-81.685 -232.836,-154.805 -23.291,-47.901 16.794,-102.344 69.502,-94.673 50.696,7.379 111.547,14.198 163.334,14.198 24.134,0 50.237,-1.483 76.363,-3.811 -79.967,59.787 -183.5,39.187 -179.642,124.105 C -99.049,-21.829 0,0 0,0"
             style="fill:#c68d6d;fill-opacity:1;fill-rule:nonzero;stroke:none"
             id="path8615" /></g><g
           id="g8617"
           transform="translate(256,319.9276)"><path
             d="m 0,0 v 0 c -15.521,0 -28.101,12.58 -28.101,28.1 v 20.429 c 0,4.238 3.435,7.671 7.671,7.671 h 40.86 c 4.237,0 7.671,-3.433 7.671,-7.671 V 28.1 C 28.1,12.58 15.52,0 0,0"
             style="fill:#57565c;fill-opacity:1;fill-rule:nonzero;stroke:none"
             id="path8619" /></g><g
           id="g8621"
           transform="translate(162.0039,371.8964)"><path
             d="m 0,0 c 16.554,0 29.974,-10.687 29.974,-23.868 0,-13.183 -13.42,-23.869 -29.974,-23.869 -16.553,0 -29.973,10.686 -29.973,23.869 C -29.973,-10.687 -16.553,0 0,0"
             style="fill:#ffd9e8;fill-opacity:1;fill-rule:nonzero;stroke:none"
             id="path8623" /></g><g
           id="g8625"
           transform="translate(349.9961,371.8964)"><path
             d="m 0,0 c 16.553,0 29.973,-10.687 29.973,-23.868 0,-13.183 -13.42,-23.869 -29.973,-23.869 -16.554,0 -29.974,10.686 -29.974,23.869 C -29.974,-10.687 -16.554,0 0,0"
             style="fill:#ffd9e8;fill-opacity:1;fill-rule:nonzero;stroke:none"
             id="path8627" /></g><g
           id="g8629"
           transform="translate(336.6572,361.1308)"><path
             d="m 0,0 c -4.144,0 -7.5,3.357 -7.5,7.5 v 12.45 c 0,4.143 3.356,7.5 7.5,7.5 4.142,0 7.5,-3.357 7.5,-7.5 V 7.5 C 7.5,3.357 4.142,0 0,0"
             style="fill:#000000;fill-opacity:1;fill-rule:nonzero;stroke:none"
             id="path8631" /></g><g
           id="g8633"
           transform="translate(175.3428,361.1308)"><path
             d="m 0,0 c -4.142,0 -7.5,3.357 -7.5,7.5 v 12.45 c 0,4.143 3.358,7.5 7.5,7.5 4.144,0 7.5,-3.357 7.5,-7.5 V 7.5 C 7.5,3.357 4.144,0 0,0"
             style="fill:#000000;fill-opacity:1;fill-rule:nonzero;stroke:none"
             id="path8635" /></g><g
           id="g8637"
           transform="translate(398.3525,461.2528)"><path
             d="m 0,0 c -36.429,25.883 -82.99,43.247 -142.353,43.247 -128.752,0 -197.283,-81.685 -232.835,-154.805 -23.291,-47.901 16.793,-102.344 69.501,-94.672 50.697,7.378 111.548,14.196 163.334,14.196 51.787,0 112.638,-6.818 163.334,-14.196 52.708,-7.672 92.793,46.771 69.502,94.672 -14.98,30.809 -35.814,63.138 -64.541,90.237"
             style="fill:none;stroke:#000000;stroke-width:15;stroke-linecap:round;stroke-linejoin:round;stroke-miterlimit:10;stroke-dasharray:none;stroke-opacity:1"
             id="path8639" /></g><g
           id="g8641"
           transform="translate(256,319.9276)"><path
             d="m 0,0 v 0 c -15.521,0 -28.101,12.58 -28.101,28.1 v 20.429 c 0,4.238 3.435,7.671 7.671,7.671 h 40.86 c 4.237,0 7.671,-3.433 7.671,-7.671 V 28.1 C 28.1,12.58 15.52,0 0,0 Z"
             style="fill:none;stroke:#000000;stroke-width:15;stroke-linecap:butt;stroke-linejoin:round;stroke-miterlimit:10;stroke-dasharray:none;stroke-opacity:1"
             id="path8643" /></g><g
           id="g8645"
           transform="translate(205.7861,176.2665)"><path
             d="M 0,0 C -59.493,10.663 -105.09,39.778 -117.068,75.866"
             style="fill:none;stroke:#000000;stroke-width:15;stroke-linecap:round;stroke-linejoin:round;stroke-miterlimit:10;stroke-dasharray:none;stroke-opacity:1"
             id="path8647" /></g><g
           id="g8649"
           transform="translate(423.1377,251.704)"><path
             d="m 0,0 c -15.462,-45.504 -84.415,-79.814 -167.138,-79.814 -6.152,0 -12.227,0.189 -18.211,0.559"
             style="fill:none;stroke:#000000;stroke-width:15;stroke-linecap:round;stroke-linejoin:round;stroke-miterlimit:10;stroke-dasharray:none;stroke-opacity:1"
             id="path8651" /></g><g
           id="g8653"
           transform="translate(319.8857,179.2734)"><path
             d="m 0,0 c 12.823,-31.556 20.582,-66.176 20.582,-87.306 0,-46.65 -37.817,-84.467 -84.468,-84.467 -46.65,0 -84.468,37.817 -84.468,84.467 0,21.073 7.717,55.564 20.479,87.05"
             style="fill:none;stroke:#000000;stroke-width:15;stroke-linecap:butt;stroke-linejoin:round;stroke-miterlimit:10;stroke-dasharray:none;stroke-opacity:1"
             id="path8655" /></g></g></g></g></svg>
