<svg height="512" viewBox="0 0 64 64" width="512" xmlns="http://www.w3.org/2000/svg"><g id="_15-parsley" data-name="15-parsley"><g fill="#64b659"><path d="m32.361 31.639s10.606 10.607 16.97 4.243c2.122-2.121 1.414-5.657 1.414-5.657s4.95 2.121 6.364-2.121-1.409-5.657-1.409-5.657 6.364-.707 6.364-4.95-3.535-3.535-3.535-3.535 7.771-6.362 2.823-11.314-11.314 2.828-11.314 2.828.707-3.535-3.535-3.535-4.95 6.364-4.95 6.364-1.414-2.829-5.653-1.414-2.121 6.364-2.121 6.364-3.536-.708-5.657 1.414c-6.368 6.364 4.239 16.97 4.239 16.97z"/><path d="m32.967 48.691s-2.48 9.739 2.218 11.449c3.759 1.369 4.785-1.451 4.785-1.451s4.868 7.093 7.262.515c0 0 6.491 5.555 9.228-1.962s-5.808-7.435-5.808-7.435c2.394-6.578-5.894-4.273-5.894-4.273s1.026-2.819-2.732-4.187c-4.699-1.71-9.059 7.344-9.059 7.344z"/><path d="m20.739 36.339s6.364-7.778 2.829-11.314c-2.829-2.828-4.95-.707-4.95-.707s-1.414-8.485-6.364-3.536c0 0-3.536-7.778-9.192-2.121s2.121 9.193 2.121 9.193c-4.95 4.946 3.535 6.364 3.535 6.364s-2.121 2.121.708 4.949c3.535 3.533 11.313-2.828 11.313-2.828z"/></g><path d="m60.717 13.23c1.363-1.486 3.143-3.91 3.275-6.548a6.09 6.09 0 0 0 -1.933-4.741 6.106 6.106 0 0 0 -4.741-1.933c-2.638.131-5.062 1.911-6.548 3.275a3.555 3.555 0 0 0 -.529-.88 4.571 4.571 0 0 0 -3.741-1.462c-3.442 0-4.933 3.193-5.547 5.344a6.124 6.124 0 0 0 -5.377-.343 4.591 4.591 0 0 0 -2.9 2.482 6.2 6.2 0 0 0 -.27 3.717 6.991 6.991 0 0 0 -5 1.821c-2.946 2.946-3.1 7.114-.438 12.052a30.136 30.136 0 0 0 4 5.6l-7.651 7.651c-.336-.706-.814-1.648-1.444-2.758 1.387-1.837 6.021-8.571 2.4-12.191-1.912-1.912-3.728-2-5-1.548-.447-1.524-1.408-3.8-3.262-4.394a3.786 3.786 0 0 0 -3.495.845c-.8-1.257-2.351-3.143-4.564-3.545-1.87-.338-3.754.428-5.6 2.278s-2.617 3.735-2.278 5.6c.4 2.213 2.288 3.759 3.545 4.565a3.777 3.777 0 0 0 -.844 3.494c.6 1.86 2.882 2.821 4.406 3.266a4 4 0 0 0 -.153.553c-.209 1.045-.086 2.665 1.688 4.438a4.7 4.7 0 0 0 3.457 1.354c3.045 0 6.482-2.142 8.165-3.338.717 1.286 1.2 2.29 1.468 2.886l-21.513 21.523a1 1 0 1 0 1.414 1.414l17.833-17.833a1 1 0 0 0 .3.112c.115.02 5.669.96 12.135 2.572-.285 1.181-2.379 10.611 2.873 12.522 2.538.925 4.221.234 5.182-.708.97 1.112 2.634 2.628 4.419 2.628a3.157 3.157 0 0 0 .388-.024 3.783 3.783 0 0 0 2.811-2.243c1.262.8 3.463 1.855 5.635 1.284 1.837-.483 3.221-1.974 4.116-4.433s.793-4.491-.3-6.042c-1.3-1.836-3.662-2.439-5.141-2.638a3.781 3.781 0 0 0 -.712-3.524c-1.322-1.43-3.788-1.337-5.361-1.1-.129-1.341-.973-2.948-3.514-3.873-4.183-1.522-7.866 3.614-9.462 6.313-5.11-1.294-9.682-2.163-11.688-2.523l11.163-11.167a30.156 30.156 0 0 0 5.6 4 13.831 13.831 0 0 0 6.451 1.889 7.674 7.674 0 0 0 5.6-2.327 6.988 6.988 0 0 0 1.82-5 6.219 6.219 0 0 0 3.718-.27 4.6 4.6 0 0 0 2.482-2.9 6.119 6.119 0 0 0 -.344-5.376c2.152-.614 5.345-2.106 5.345-5.547a4.574 4.574 0 0 0 -1.456-3.74 3.555 3.555 0 0 0 -.883-.529zm-50.583 25.23c-1.979-1.98-.929-3.3-.707-3.535a1 1 0 0 0 -.543-1.694c-1.2-.2-3.811-1.007-4.2-2.224-.248-.775.52-1.758 1.208-2.446a1 1 0 0 0 -.292-1.618c-.031-.014-3.143-1.486-3.552-3.742-.215-1.184.365-2.474 1.724-3.833a4.978 4.978 0 0 1 3.344-1.768 2.768 2.768 0 0 1 .482.042c2.278.409 3.733 3.524 3.748 3.555a1 1 0 0 0 1.616.292c.688-.688 1.67-1.456 2.446-1.209 1.21.386 2.022 3 2.225 4.2a1 1 0 0 0 .674.777 1.011 1.011 0 0 0 1.01-.225c.244-.231 1.567-1.281 3.545.7 2.029 2.029-.359 6.448-2.1 8.915-.481-.768-1.024-1.579-1.622-2.418a7.14 7.14 0 0 0 1.86-4.229 1 1 0 0 0 -2 0 4.808 4.808 0 0 1 -1.1 2.566 42.143 42.143 0 0 0 -7.289-7.356 1 1 0 0 0 -1.228 1.58 37.363 37.363 0 0 1 4.205 3.84 7.8 7.8 0 0 1 -2.588.37 1 1 0 0 0 0 2 8.445 8.445 0 0 0 4.006-.8 46.829 46.829 0 0 1 4.32 5.966c-2.396 1.741-7.081 4.402-9.192 2.294zm31.549 3.826c2.631.958 2.237 2.6 2.135 2.906a1 1 0 0 0 1.208 1.308c1.175-.327 3.881-.7 4.748.239.553.6.271 1.814-.062 2.729a1 1 0 0 0 .124.919 1.077 1.077 0 0 0 .826.423c.079 0 3.485.031 4.8 1.889.7.984.715 2.4.058 4.2s-1.578 2.873-2.74 3.181c-2.236.594-4.873-1.615-4.9-1.638a1 1 0 0 0 -1.589.419c-.333.914-.9 2.026-1.7 2.129-1.253.148-3.1-1.863-3.793-2.868a1 1 0 0 0 -.822-.426 1.146 1.146 0 0 0 -.117.006 1.014 1.014 0 0 0 -.82.631c-.123.312-.875 1.823-3.508.867-3.1-1.129-2.243-7.6-1.619-10.148 1.331.352 2.68.73 4.013 1.132a5.964 5.964 0 0 0 1.372 5.522 1 1 0 0 0 1.414-1.414 3.95 3.95 0 0 1 -.865-3.5c4.362 1.42 8.327 3.1 10.507 4.97a1 1 0 0 0 1.3-1.518 23.65 23.65 0 0 0 -5.888-3.377 4.36 4.36 0 0 1 2.235-.867 1 1 0 0 0 0-2 7.285 7.285 0 0 0 -4.385 2c-2.738-1.038-5.757-1.961-8.7-2.752 1.598-2.573 4.307-5.848 6.768-4.962zm13.9-20.686a1 1 0 0 0 -.862.808 1.009 1.009 0 0 0 .514 1.073c.209.113 2.012 1.194.926 4.453a2.65 2.65 0 0 1 -1.4 1.707 5.353 5.353 0 0 1 -3.623-.188 1 1 0 0 0 -1.375 1.115c.006.03.555 3.058-1.141 4.753-4.747 4.742-12.588-1.569-14.9-3.63l6.806-6.806c.007 0 .011.011.019.015a14.138 14.138 0 0 0 5.573 1.383 6.938 6.938 0 0 0 2.19-.329 1 1 0 1 0 -.632-1.9c-1.941.646-4.495-.217-5.638-.683l4.488-4.488c.007 0 .011.011.019.015a14.138 14.138 0 0 0 5.573 1.383 6.938 6.938 0 0 0 2.19-.329 1 1 0 1 0 -.632-1.9c-1.94.647-4.495-.217-5.638-.683l3.161-3.161a1 1 0 0 0 -1.414-1.414l-6.687 6.692c-1.234-2.208.607-4.761.7-4.888a1 1 0 0 0 -1.6-1.2c-1.111 1.481-2.486 4.794-.548 7.534l-4.136 4.138c-1.992-2.315.183-5.333.285-5.472a1 1 0 0 0 -1.6-1.2c-1.187 1.583-2.676 5.256-.1 8.088l-3.777 3.777a28.124 28.124 0 0 1 -3.588-5.057c-2.229-4.14-2.2-7.4.092-9.691 1.708-1.707 4.727-1.146 4.753-1.141a1 1 0 0 0 1.119-1.374 5.347 5.347 0 0 1 -.189-3.625 2.64 2.64 0 0 1 1.706-1.4c3.26-1.087 4.341.716 4.447.912a1 1 0 0 0 1.888-.335c.006-.055.662-5.476 3.956-5.476a2.744 2.744 0 0 1 2.183.721 2.218 2.218 0 0 1 .372 1.619 1 1 0 0 0 1.754.83c.032-.039 3.276-3.943 6.61-4.105a4.121 4.121 0 0 1 3.218 1.359 4.117 4.117 0 0 1 1.355 3.22c-.163 3.334-4.066 6.577-4.1 6.609a1 1 0 0 0 -.269 1.193 1.009 1.009 0 0 0 1.09.563 2.218 2.218 0 0 1 1.628.37 2.745 2.745 0 0 1 .72 2.183c-.01 3.294-5.431 3.95-5.486 3.962z"/></g></svg>