<?xml version="1.0" encoding="iso-8859-1"?>
<!-- Generator: Adobe Illustrator 19.0.0, SVG Export Plug-In . SVG Version: 6.00 Build 0)  -->
<svg version="1.1" id="Capa_1" xmlns="http://www.w3.org/2000/svg" xmlns:xlink="http://www.w3.org/1999/xlink" x="0px" y="0px"
	 viewBox="0 0 512.002 512.002" style="enable-background:new 0 0 512.002 512.002;" xml:space="preserve">
<path style="fill:#27231E;" d="M12.586,499.417c3.65,3.65,8.922,5.678,14.661,4.931l63.651-8.289l-18.229-56.725l-34.87,19.333
	L12.586,499.417z"/>
<path style="fill:#534E47;" d="M72.505,438.822l-56.56-17.717l-8.289,63.651c-0.747,5.74,1.281,11.011,4.931,14.661l60.083-60.083
	L72.505,438.822z"/>
<path style="fill:#E7AF62;" d="M53.422,458.582l37.477,37.477l82.162-10.7c7.963-1.037,15.407-4.715,21.134-10.443l2.456-2.456
	l6.75-161.009l-3.004,0.156L89.705,375.686L53.422,458.582z"/>
<path style="fill:#F6D99F;" d="M34.92,320.178c-4.487,5.345-7.376,11.859-8.276,18.765l-10.7,82.162l37.477,37.477l146.975-146.975
	L34.92,320.178z"/>
<path style="fill:#E39510;" d="M94.97,366.273c7.835,3.408,13.315,11.213,13.315,20.301l0,0c0,12.223,9.909,22.132,22.132,22.132
	l0,0c12.223,0,22.132,9.909,22.132,22.132l0,0c0,12.223,9.909,22.132,22.132,22.132l0,0c11.328,0,20.663,8.513,21.97,19.489
	l217.135-217.135l-93.934-113.933L94.97,366.273z"/>
<path style="fill:#FBB740;" d="M256.679,98.217L37.087,317.809c-0.76,0.76-1.481,1.552-2.167,2.369h6.968
	c11.341,0,20.684,8.532,21.974,19.526c0.048,0.408,0.085,0.82,0.112,1.235c0.001,0.025,0.004,0.051,0.006,0.076
	c0.026,0.429,0.041,0.861,0.041,1.296l0,0c0,12.223,9.909,22.132,22.132,22.132l0,0c3.135,0,6.115,0.656,8.817,1.831
	c7.835,3.408,13.315,11.213,13.315,20.301l0,0c0,4.839,1.559,9.309,4.195,12.95l232.752-232.754L256.679,98.217z"/>
<path style="fill:#D05422;" d="M367.251,12.582l105.607,105.607l-59.073,137.135L256.679,98.217l85.344-85.344
	C349.07,5.826,360.365,5.696,367.251,12.582z"/>
<path style="fill:#962E23;" d="M458.716,104.048l40.704,40.704c6.886,6.886,6.756,18.181-0.291,25.228l-85.344,85.344
	l-53.173-53.173L458.716,104.048z"/>
<path style="fill:#AB5719;" d="M316.489,328.13l12.246,12.246c2.813,2.813,6.628,4.394,10.606,4.394s7.794-1.581,10.607-4.394
	l8.286-8.287l0,0l74.445-74.445c2.813-2.813,4.394-6.628,4.394-10.606s-1.581-7.793-4.394-10.606l-12.246-12.246l-55.808-55.808
	l-75.808,35.808l-28.136,68.137L316.489,328.13z"/>
<path style="fill:#D0791C;" d="M171.627,183.269l89.054,89.053l103.944-103.944l-89.054-89.054
	c-2.813-2.813-6.628-4.394-10.606-4.394s-7.794,1.58-10.606,4.394l-82.731,82.731c-2.813,2.813-4.394,6.628-4.394,10.606
	C167.234,176.64,168.814,180.456,171.627,183.269z"/>
<circle style="fill:#E39510;" cx="174.561" cy="259.661" r="20"/>
<circle style="fill:#C37800;" cx="252.34" cy="337.441" r="20"/>
<path style="fill:#FCCB73;" d="M132.361,262.969l-10.607-10.607c-2.929-2.929-2.929-7.678,0-10.607l0,0
	c2.929-2.929,7.678-2.929,10.607,0l10.607,10.607c2.929,2.929,2.929,7.678,0,10.607l0,0
	C140.04,265.898,135.29,265.898,132.361,262.969z"/>
<path style="fill:#EFA628;" d="M259.641,390.248l-10.607-10.607c-2.929-2.929-2.929-7.678,0-10.607l0,0
	c2.929-2.929,7.678-2.929,10.607,0l10.607,10.607c2.929,2.929,2.929,7.678,0,10.607l0,0
	C267.319,393.177,262.57,393.177,259.641,390.248z"/>
<path d="M512,157.392c0.078-6.801-2.507-13.173-7.276-17.943L372.555,7.28c-4.7-4.7-10.956-7.278-17.644-7.278
	c-0.101,0-0.201,0-0.301,0.002c-6.735,0.078-13.09,2.765-17.892,7.566l-62.069,62.069c-2.99-1.429-6.274-2.208-9.686-2.208
	c-6.01,0-11.66,2.34-15.911,6.591l-20.605,20.606l-21.214,21.213l-21.213,21.213c-0.003,0.003-0.006,0.007-0.009,0.01
	l-19.689,19.688c-4.249,4.25-6.589,9.899-6.589,15.909c0,6.011,2.341,11.661,6.59,15.91l73.25,73.25L115.751,385.645
	c-0.358-11.429-7.248-21.665-17.789-26.249c-3.742-1.629-7.715-2.454-11.81-2.454c-4.143,0-7.5,3.357-7.5,7.5s3.357,7.5,7.5,7.5
	c2.022,0,3.982,0.406,5.826,1.209c5.35,2.326,8.807,7.595,8.807,13.423c0,0.679,0.027,1.385,0.083,2.137l0.035,0.46
	c0.063,0.715,0.147,1.414,0.262,2.143l0.03,0.164c0.111,0.665,0.248,1.339,0.398,1.967c0.012,0.054,0.042,0.185,0.056,0.238
	c0.169,0.685,0.366,1.374,0.586,2.05c0.019,0.059,0.037,0.115,0.06,0.181c0.826,2.487,1.97,4.795,3.357,6.911
	c0.357,0.748,0.838,1.451,1.457,2.07c0.04,0.04,0.083,0.073,0.124,0.112c5.506,6.934,13.948,11.201,23.185,11.201
	c8.068,0,14.632,6.563,14.632,14.632c0,16.339,13.293,29.632,29.633,29.632c6.248,0,11.655,3.949,13.722,9.591
	c-4.475,4.276-10.234,7.069-16.312,7.86l-78.501,10.223l-69.731-69.731l10.223-78.501c0.57-4.38,2.156-8.547,4.602-12.234h3.205
	c7.417,0,13.661,5.546,14.524,12.896c0.032,0.278,0.058,0.558,0.083,0.939c0,0.004,0,0.009,0.001,0.014
	c0.015,0.26,0.023,0.521,0.023,0.783c0,4.143,3.357,7.5,7.5,7.5s7.5-3.357,7.5-7.5c0-0.59-0.02-1.177-0.055-1.757h-0.001
	c-0.003-0.054-0.007-0.108-0.011-0.16c-0.034-0.524-0.082-1.044-0.143-1.565c-1.369-11.654-9.397-21.068-20.014-24.622
	l105.905-105.906c2.929-2.929,2.929-7.678,0-10.606c-2.93-2.929-7.678-2.929-10.607,0L31.784,312.505
	c-0.889,0.89-1.764,1.845-2.597,2.839c-0.003,0.004-0.007,0.007-0.01,0.011c-5.438,6.478-8.886,14.299-9.97,22.619l-10.7,82.162
	l-8.289,63.65c-1.016,7.798,1.559,15.428,7.063,20.934c4.717,4.716,10.992,7.282,17.597,7.281c1.105,0,2.22-0.071,3.338-0.217
	l63.65-8.289l82.162-10.699c9.559-1.245,18.604-5.712,25.47-12.577l2.456-2.456l127.702-127.702
	c2.989,1.429,6.273,2.207,9.685,2.207c6.011,0,11.662-2.341,15.91-6.59l19.698-19.698l21.213-21.213l21.214-21.214l20.605-20.605
	c4.25-4.249,6.591-9.9,6.591-15.911c0-3.411-0.779-6.696-2.208-9.685l62.069-62.069C509.236,170.482,511.923,164.128,512,157.392z
	 M26.279,496.91c-3.143,0.41-6.202-0.608-8.39-2.797c-2.187-2.187-3.206-5.244-2.796-8.389l6.322-48.542l53.406,53.406
	L26.279,496.91z M199.538,458.967c-5.314-8.174-14.528-13.496-24.856-13.496c-8.068,0-14.633-6.563-14.633-14.632
	c0-16.339-13.293-29.632-29.632-29.632c-2.569,0-5.01-0.676-7.144-1.87L250.18,272.429l67.947,67.947L199.538,458.967z
	 M427.376,252.341l-15.303,15.302L279.664,135.237c-2.93-2.929-7.678-2.929-10.607,0s-2.929,7.678,0,10.606l132.41,132.408
	l-10.607,10.607L258.445,156.444c-2.93-2.929-7.678-2.929-10.607,0s-2.929,7.678,0,10.606l132.414,132.414l-10.606,10.606
	L237.23,177.657c-2.93-2.928-7.678-2.93-10.607,0c-2.929,2.929-2.929,7.678,0,10.606l132.415,132.414l-14.396,14.396
	c-1.415,1.416-3.298,2.196-5.302,2.196s-3.887-0.78-5.303-2.197l-78.547-78.546c-0.002-0.002-0.004-0.005-0.007-0.008
	s-0.005-0.004-0.008-0.007l-78.547-78.546c-1.416-1.417-2.196-3.3-2.196-5.304s0.78-3.887,2.196-5.303l14.395-14.394l14.093,14.092
	c1.465,1.464,3.385,2.197,5.304,2.197s3.839-0.732,5.304-2.197c2.929-2.929,2.929-7.678,0-10.606l-14.094-14.093l10.606-10.606
	l14.093,14.093c1.465,1.464,3.385,2.197,5.304,2.197s3.839-0.732,5.304-2.197c2.929-2.929,2.929-7.678,0-10.606l-14.094-14.093
	l10.607-10.607l14.087,14.088c2.929,2.929,7.677,2.93,10.607,0c2.929-2.929,2.929-7.677,0-10.606l-14.087-14.089l15.302-15.303
	c1.417-1.417,3.301-2.197,5.305-2.197c2.001,0,3.882,0.778,5.298,2.192c0.001,0.002,0.003,0.003,0.004,0.005
	c0.003,0.003,0.007,0.006,0.01,0.009L427.371,241.73c0.002,0.002,0.003,0.003,0.005,0.005c0.001,0.001,0.002,0.002,0.003,0.003
	c1.415,1.416,2.194,3.298,2.194,5.301C429.573,249.041,428.793,250.925,427.376,252.341z M493.827,164.677l-61.147,61.147
	l-146.501-146.5l61.149-61.148c4.111-4.111,10.67-4.242,14.621-0.291l132.17,132.17c1.891,1.891,2.915,4.435,2.883,7.164
	C496.969,160.014,495.841,162.663,493.827,164.677z"/>
<g>
</g>
<g>
</g>
<g>
</g>
<g>
</g>
<g>
</g>
<g>
</g>
<g>
</g>
<g>
</g>
<g>
</g>
<g>
</g>
<g>
</g>
<g>
</g>
<g>
</g>
<g>
</g>
<g>
</g>
</svg>
