<svg id="Layer_1" enable-background="new 0 0 480.128 480.128" height="512" viewBox="0 0 480.128 480.128" width="512" xmlns="http://www.w3.org/2000/svg"><path d="m74.467 230.293c114.913-110.071 276.892-78.595 383.52-2.95-31.802 235.096-369.319 237.242-383.52 2.95z" fill="#fff0a6"/><path d="m365.207 375.083c-111.01 67.77-280.76 19.9-290.74-144.79 13.65-4.6 26.44-8.36 38.5-11.37 12.52 141.78 145.86 193.57 252.24 156.16z" fill="#fff8d6"/><path d="m457.987 185.193c-2.08-33.05-17.76-57.72-41.63-75.1-40.88-29.75-105.79-38.11-167.51-30.54 0 .459-35.587 2.843-77.22 18.78-33.63 12.87-61.31 31.06-76.35 53.23-1.28 1.89-45.68-32.96-70.6-15.48-22.2 15.57-24.74 104.32 8.87 104.47 17.95.08 24.96-3.52 40.92-10.26 186.18-62.8 212.82 32.74 383.52-2.95 19.59-8.66 18.07-32.98 0-42.15z" fill="#ffe773"/><path d="m403.447 101.843c-90.645-24.672-211.247 3.927-258.819 54.175-18.708 19.761-47.858-11.492-26.536-28.38 34.696-27.481 86.463-42.636 130.755-48.075v-.01c55.57-6.82 113.73-.72 154.6 22.29z" fill="#fff0a6"/><path d="m87.337 147.553c-44.876-5.788-43.276 66.782-34.16 90.86-5.52 1.45-11.44 2.18-19.63 2.14-33.61-.15-31.07-88.9-8.87-104.47 18.75-13.15 48.52 3.31 62.66 11.47z" fill="#fff0a6"/><path d="m329.987 180.353c8.08 9 8.49 22.39 0 31.63-13.67 15.05-28.57 26.46-44.45 33.7-9.8 4.47-21.36-.4-24.81-10.6-6.98-20.65-6.98-43.44.8-64.62 3.22-8.78 12.6-13.67 21.64-11.31 16.89 4.41 32.59 11.64 46.82 21.2z" fill="#fff8d6"/><path d="m309.207 168.583c-26.281-.957-27.033 49.655-19.02 74.84-1.54.8-3.09 1.55-4.65 2.26-9.8 4.47-21.36-.4-24.81-10.6-6.98-20.65-6.98-43.44.8-64.62 3.22-8.78 12.6-13.67 21.64-11.31 9.03 2.36 17.73 5.52 26.04 9.43z" fill="#fffdf2"/><g><path d="m465.632 180.433c-2.915-29.585-16.584-54.384-39.734-73.054 2.077-6.319 3.334-12.868 3.735-19.543.265-4.411-3.097-8.2-7.507-8.465-4.372-.26-8.199 3.096-8.464 7.507-.219 3.648-.766 7.247-1.619 10.773-19.237-11.816-41.44-19.225-63.958-23.573.273-6.198-.632-12.301-2.709-18.182-1.471-4.165-6.041-6.349-10.207-4.879-4.166 1.472-6.351 6.042-4.879 10.208 1.178 3.335 1.789 6.78 1.837 10.281-24.964-3.288-51.872-3.461-78.96-.519-3.128-5.813-5.918-11.623-10.322-16.702-2.895-3.338-7.946-3.698-11.285-.804-3.338 2.895-3.697 7.947-.803 11.285 2.024 2.334 3.753 5.279 5.476 8.467-20.685 3.236-41.357 8.263-60.848 15.193-4.424-7.292-10.163-13.52-17.162-18.545-3.59-2.579-8.588-1.756-11.164 1.832-2.577 3.589-1.757 8.587 1.832 11.164 4.442 3.19 8.203 7.039 11.271 11.471-29.414 12.453-52.796 28.676-67.384 47.114-.024-.014-.048-.028-.072-.042-14.684-8.5-49.071-28.403-72.624-11.883-27.508 19.293-30.104 118.82 13.43 119.012 15.159.065 23.524-2.383 33.898-6.606 3.932 36.807 16.094 69.405 35.737 96.199-3.251 2.614-6.686 4.986-10.271 7.083-3.813 2.231-5.096 7.131-2.865 10.945 2.228 3.808 7.128 5.099 10.945 2.865 4.271-2.499 8.362-5.324 12.232-8.437 25.027 28.27 58.311 47.262 95.122 56.269-2.259 3.258-4.738 6.359-7.431 9.268-4.743 5.122-1.057 13.436 5.868 13.436 2.15 0 4.295-.862 5.872-2.564 4.749-5.129 8.944-10.752 12.533-16.76 41.785 6.589 87.097.736 127.72-19.263.434 4.389.538 8.798.284 13.191-.266 4.577 3.37 8.462 7.993 8.462 4.207 0 7.733-3.284 7.979-7.537.431-7.445.015-14.925-1.211-22.313 51.58-30.946 87.141-82.568 97.411-150.264 20.039-12.142 19.326-39.157.304-52.09zm-382.723 55.493c71.781-23.354 119.151-22.793 166.293-13.896 5.417 31.137 23.482 38.309 39.654 30.931 16.669-7.604 32.5-19.581 47.055-35.596 2.971-3.27 2.729-8.33-.541-11.301-3.269-2.972-8.328-2.729-11.301.54-13.087 14.401-27.169 25.101-41.854 31.8-24.895 11.346-24.71-77.674-1.065-71.513 15.673 4.09 30.604 10.854 44.38 20.104 3.667 2.463 8.638 1.487 11.102-2.182 2.463-3.668 1.486-8.638-2.182-11.102-15.271-10.254-31.844-17.758-49.261-22.302-28.091-7.327-37.979 25.014-37.542 54.064-112.238-19.967-185.84 27.252-214.064 27.074-22.527-.099-22.19-77.375-4.315-89.913 15.193-10.655 43.383 5.664 55.421 12.631 5.209 3.016 12.525 7.707 17.205.792 59.486-87.68 339.231-111.577 348.113 29.641.178 2.828 1.838 5.35 4.364 6.632 11.792 5.986 13.787 21.193 1.088 27.359-34.188 7.076-65.549 9.361-95.845 6.969-4.404-.352-8.256 2.941-8.604 7.346s2.941 8.257 7.347 8.604c29.978 2.367 59.639.296 89.939-5.225-38.929 212.885-346.697 212.422-365.387-1.457z"/><path d="m226.384 326.807c-5.643 2.839-11.666 4.458-17.902 4.813-4.411.251-7.784 4.031-7.533 8.442.251 4.42 4.041 7.783 8.441 7.533 8.437-.48 16.574-2.665 24.186-6.495 3.946-1.986 5.536-6.795 3.551-10.742-1.987-3.947-6.799-5.537-10.743-3.551z"/><path d="m169.671 297.517c-5.981-2.034-11.358-5.193-15.983-9.392-3.27-2.968-8.33-2.726-11.3.546-2.97 3.271-2.726 8.331.546 11.301 6.256 5.68 13.519 9.951 21.587 12.694 4.189 1.423 8.729-.821 10.149-4.999 1.422-4.184-.815-8.728-4.999-10.15z"/><path d="m308.563 313.761c-4.381.573-7.468 4.589-6.895 8.97.804 6.139-.574 12.036-3.983 17.055-3.637 5.352.281 12.497 6.61 12.497 2.561 0 5.076-1.228 6.624-3.505 5.566-8.193 7.915-18.181 6.614-28.122-.573-4.382-4.596-7.47-8.97-6.895z"/><path d="m226.923 276.495c4.279-1.099 6.857-5.459 5.758-9.739-1.1-4.28-5.46-6.856-9.738-5.758-6.22 1.597-12.593 1.898-18.938.894-4.359-.69-8.461 2.286-9.152 6.65s2.286 8.462 6.65 9.153c8.513 1.349 17.069.944 25.42-1.2z"/><path d="m332.049 119.285c-3.199-3.047-8.263-2.924-11.311.275-3.047 3.2-2.924 8.264.275 11.311 4.594 4.375 7.981 9.919 9.8 16.034 1.032 3.475 4.216 5.723 7.665 5.723 5.359 0 9.192-5.164 7.672-10.281-2.612-8.789-7.488-16.763-14.101-23.062z"/><path d="m248.546 132.09c-6.786-5.311-14.372-9.173-22.547-11.48-4.257-1.203-8.672 1.274-9.872 5.526s1.274 8.672 5.526 9.872c6.162 1.739 11.893 4.66 17.033 8.682 3.473 2.719 8.502 2.115 11.23-1.37 2.724-3.479 2.109-8.507-1.37-11.23z"/><path d="m203.327 165.657c-9.219-5.17-19.669-7.702-30.191-7.316-4.416.161-7.864 3.871-7.704 8.286.16 4.414 3.867 7.866 8.286 7.703 7.604-.275 15.128 1.55 21.781 5.282 3.847 2.157 8.727.796 10.892-3.064 2.161-3.854.79-8.73-3.064-10.891z"/><circle cx="399.346" cy="183.764" r="8"/></g></svg>