<svg id="Layer_1" enable-background="new 0 0 1000 1000" viewBox="0 0 1000 1000" xmlns="http://www.w3.org/2000/svg"><path d="m0 0h1000v1000h-1000z" fill="#f00"/><path d="m818.2 339.1c-7.6-28.8-30-51.3-58.7-59.1-51.8-14-259.5-14-259.5-14s-207.7 0-259.4 14c-28.7 7.8-51.1 30.3-58.7 59.1-13.9 52.1-13.9 160.9-13.9 160.9s0 108.8 13.9 160.9c7.6 28.8 30 51.3 58.7 59.1 51.8 14 259.4 14 259.4 14s207.7 0 259.5-14c28.7-7.8 51.1-30.3 58.7-59.1 13.8-52.1 13.8-160.9 13.8-160.9s0-108.8-13.8-160.9zm-386.1 259.6v-197.4l173.6 98.7z" fill="#fff"/></svg>