<svg id="Layer_1" enable-background="new 0 0 64 64" viewBox="0 0 64 64" xmlns="http://www.w3.org/2000/svg"><g><path d="m53.59 44.67c3.85-4.86 5.96-10.86 5.96-17.12 0-15.19-12.36-27.55-27.55-27.55-15.2 0-27.55 12.36-27.55 27.55 0 6.26 2.11 12.27 5.96 17.12-6.29 3.82-8.65 9.77-7.21 18.14.12.69.72 1.19 1.41 1.19h54.78c.69 0 1.29-.5 1.41-1.19 1.44-8.37-.92-14.32-7.21-18.14zm-46.28-17.12c0-13.61 11.07-24.68 24.69-24.68 13.61 0 24.68 11.07 24.68 24.68 0 5.79-2.03 11.33-5.7 15.76-2.2-1-4.46-1.68-6.04-2.12-.45-.13-.87-.25-1.27-.41-2.92-1.08-3.98-2.54-4.36-3.51 2.65-2.81 4.61-6.91 4.61-11.37 0-6.52-1.35-14-11.92-14s-11.93 7.48-11.93 14c0 4.46 1.97 8.56 4.62 11.37-.37.96-1.41 2.41-4.29 3.48-.01.01-.03.01-.05.02s-.04.01-.06.02c0 0 0 0-.01 0-.37.15-.79.28-1.21.4-1.59.44-3.85 1.12-6.05 2.12-3.68-4.42-5.71-9.97-5.71-15.76zm19.62 11.68c1.65 1.16 3.42 1.82 5.07 1.82s3.42-.67 5.07-1.82c.64 1.12 1.76 2.34 3.69 3.38l-3.12 3.33h-11.28l-3.13-3.33c1.94-1.04 3.06-2.26 3.7-3.38zm-3.99-13.33c0-8.22 2.37-11.14 9.06-11.14s9.06 2.92 9.06 11.14c0 6.66-5.57 12.29-9.06 12.29-3.5 0-9.06-5.63-9.06-12.29zm35.21 35.24h-52.3c-.91-7.08 1.47-11.79 7.42-14.78 2.29-1.16 4.84-1.93 6.58-2.41.17-.05.36-.11.55-.17l4.29 4.58c.27.28.65.45 1.05.45h12.52c.4 0 .77-.17 1.05-.46l4.28-4.57c.19.06.36.11.58.17 1.72.48 4.27 1.25 6.56 2.41 5.95 2.99 8.33 7.7 7.42 14.78z"/><path d="m56.68 27.55c0 5.79-2.03 11.33-5.7 15.76-2.2-1-4.46-1.68-6.04-2.12-.45-.13-.87-.25-1.27-.41-2.92-1.08-3.98-2.54-4.36-3.51 2.65-2.81 4.61-6.91 4.61-11.37 0-6.52-1.35-14-11.92-14s-11.93 7.48-11.93 14c0 4.46 1.97 8.56 4.62 11.37-.37.96-1.41 2.41-4.29 3.48-.01.01-.03.01-.05.02s-.04.01-.06.02c0 0 0 0-.01 0-.37.15-.79.28-1.21.4-1.59.44-3.85 1.12-6.05 2.12-3.68-4.42-5.71-9.97-5.71-15.76 0-13.61 11.07-24.68 24.69-24.68 13.61 0 24.68 11.07 24.68 24.68z" fill="#f26e61"/><path d="m58.15 61.14h-52.3c-.91-7.08 1.47-11.79 7.42-14.78 2.29-1.16 4.84-1.93 6.58-2.41.17-.05.36-.11.55-.17l4.29 4.58c.27.28.65.45 1.05.45h12.52c.4 0 .77-.17 1.05-.46l4.28-4.57c.19.06.36.11.58.17 1.72.48 4.27 1.25 6.56 2.41 5.95 2.99 8.33 7.7 7.42 14.78z" fill="#a0d3f2"/><path d="m40.76 42.61-3.12 3.33h-11.28l-3.13-3.33c1.94-1.04 3.06-2.26 3.7-3.38 1.65 1.16 3.42 1.82 5.07 1.82s3.42-.67 5.07-1.82c.64 1.12 1.76 2.34 3.69 3.38z" fill="#f0d39a"/><path d="m41.06 25.9c0 6.66-5.57 12.29-9.06 12.29-3.5 0-9.06-5.63-9.06-12.29 0-8.22 2.37-11.14 9.06-11.14s9.06 2.92 9.06 11.14z" fill="#ffe5ab"/></g></svg>