<svg id="Layer_1" enable-background="new 0 0 100 100" viewBox="0 0 100 100" xmlns="http://www.w3.org/2000/svg"><path clip-rule="evenodd" d="m45.6365318 90.5217285 45.9254723-48.4102783c1.3099594-1.3751869 1.266037-3.5433273-.1091461-4.8532867-1.3988647-1.3002777-3.567009-1.2563553-4.8770523.1190338l-45.9491539 48.41996c-5.8476219 6.1687927-15.6389866 6.4500732-21.8077831.6024475-6.2022371-5.8614197-6.4736891-15.6291656-.6122723-21.831398l49.2614441-51.9014397c4.0321426-4.2789164 10.8217163-4.3907824 15.1301041-.2877913 4.3221817 4.0695515 4.571785 10.8572369.5532913 15.1027718l-41.9331894 44.1610594c-2.3485947 2.4714584-6.2387238 2.5674744-8.7004967.2425537-2.4615726-2.3248367-2.5576477-6.2151031-.2326698-8.6767387l35.4872894-37.5122528c1.3098984-1.37533 1.2325363-3.5572643-.1426544-4.8672237-1.3751831-1.3099594-3.5572662-1.2325344-4.843605.1328278l-35.4872895 37.5122546c-4.9446926 5.2120895-4.7176495 13.4761124.4944992 18.4209518 5.2356224 4.9350739 13.4661484 4.6940918 18.410984-.5180588l41.9333916-44.1609764c6.6383514-6.9960556 6.2910156-18.1437855-.8149796-24.8470459-7.0823821-6.713087-18.2359695-6.4464306-24.8408737.5634151l-49.2849788 51.911057c-8.4578028 8.9429893-8.0552378 23.0844307.8875494 31.5421486 8.9528169 8.4814224 23.0706396 8.0886841 31.5521192-.8639908z" fill-rule="evenodd"/></svg>