<?xml version="1.0" encoding="UTF-8"?>
<!-- Generator: Adobe Illustrator 24.3.0, SVG Export Plug-In . SVG Version: 6.00 Build 0)  -->
<svg xmlns="http://www.w3.org/2000/svg" xmlns:xlink="http://www.w3.org/1999/xlink" version="1.1" id="Capa_1" x="0px" y="0px" viewBox="0 0 512 512" style="enable-background:new 0 0 512 512;" xml:space="preserve" width="512" height="512">
<g>
	<path d="M421.647,30.118H90.353c-33.267,0-60.235,26.968-60.235,60.235v331.294c0,33.267,26.968,60.235,60.235,60.235h331.294   c33.267,0,60.235-26.968,60.235-60.235V254.708L311.824,424.766c-5.881,5.881-15.415,5.881-21.296,0L139.94,274.178   c-5.881-5.881-5.881-15.416,0-21.296l60.235-60.235c5.881-5.881,15.415-5.881,21.296,0l79.705,79.705L481.882,91.645   C481.882,57.086,454.914,30.118,421.647,30.118z M486.293,207.705c9.486-9.486,25.707-2.768,25.707,10.648v203.294   C512,471.548,471.548,512,421.647,512H90.353C40.452,512,0,471.548,0,421.647V90.353C0,40.452,40.452,0,90.353,0h331.294   C471.548,0,512,40.452,512,90.353v7.529c0,3.994-1.586,7.824-4.411,10.648L311.824,304.295c-5.881,5.881-15.415,5.881-21.296,0   l-79.705-79.705l-38.939,38.939l129.292,129.292L486.293,207.705z"/>
</g>















</svg>
