<svg id="Layer_1" height="512" viewBox="0 0 64 64" width="512" xmlns="http://www.w3.org/2000/svg"><g id="XMLID_1587_"><g id="XMLID_4831_"><g id="XMLID_4832_"><circle id="XMLID_78_" cx="32" cy="32" fill="#f16050" r="32"/></g></g><g id="XMLID_4824_"><g id="XMLID_4845_"><path id="XMLID_13647_" d="m40 30.1c2.7 0 5.1-1.8 6-4.5.8-2.1 1.2-4.4 1.2-6.8 0-9.9-6.9-17.8-15.4-17.8s-15.5 7.9-15.5 17.8c0 2.6.5 5 1.3 7.2 1 2.5 3.3 4.1 5.9 4.1z" fill="#e1e6e9"/><path id="XMLID_13648_" d="m40 31.1h-16.5c-3 0-5.7-1.8-6.8-4.7-.9-2.4-1.4-5-1.4-7.6 0-10.4 7.4-18.8 16.5-18.8s16.5 8.4 16.5 18.8c0 2.5-.4 4.9-1.2 7.2-1.2 3.1-4 5.1-7.1 5.1zm-8.2-29.1c-8 0-14.5 7.5-14.5 16.8 0 2.4.4 4.7 1.3 6.9.8 2.1 2.8 3.4 4.9 3.4h16.5c2.3 0 4.3-1.5 5.1-3.8.7-2.1 1.1-4.2 1.1-6.5 0-9.3-6.4-16.8-14.4-16.8z" fill="#193651"/></g><g id="XMLID_4833_"><path id="XMLID_13643_" d="m55 48.7v14.3h-46.4v-14.3c0-8.1 6.5-14.6 14.6-14.6h.2c0 4.6 3.7 8.4 8.4 8.4s8.4-3.8 8.4-8.4h.2c8.1 0 14.6 6.6 14.6 14.6z" fill="#4ebe9f"/><path id="XMLID_13644_" d="m55 64h-46.4c-.6 0-1-.4-1-1v-14.3c0-8.6 7-15.6 15.6-15.6h.2c.6 0 1 .4 1 1 0 4.1 3.3 7.4 7.4 7.4s7.4-3.3 7.4-7.4c0-.6.4-1 1-1h.2c8.6 0 15.6 7 15.6 15.6v14.3c0 .5-.5 1-1 1zm-45.4-2h44.4v-13.3c0-7.3-5.7-13.2-12.9-13.6-.5 4.7-4.5 8.4-9.3 8.4s-8.8-3.7-9.3-8.4c-7.2.4-12.9 6.3-12.9 13.6z" fill="#193651"/></g><g id="XMLID_4826_"><path id="XMLID_79_" d="m12.6 59v-10.3c0-4.8 3.2-8.9 7.6-10.2 1.8 4.7 6.3 8 11.6 8s9.8-3.3 11.6-8c4.4 1.3 7.6 5.4 7.6 10.2v10.3z" fill="#fff"/></g><g id="XMLID_4827_"><path id="XMLID_13639_" d="m23.4 34.1c0 4.6 3.8 8.4 8.4 8.4s8.4-3.8 8.4-8.4z" fill="#fff"/><path id="XMLID_13640_" d="m31.8 43.5c-5.2 0-9.4-4.2-9.4-9.4 0-.6.4-1 1-1h16.8c.6 0 1 .4 1 1 0 5.2-4.2 9.4-9.4 9.4zm-7.3-8.4c.5 3.6 3.6 6.4 7.3 6.4s6.8-2.8 7.3-6.4z" fill="#193651"/></g><g id="XMLID_4822_"><path id="XMLID_13600_" d="m42.4 20.4c0 7.4-4.7 15.1-10.6 15.1-5.8 0-10.6-7.7-10.6-15.1s8-4.2 10.6-13.3c1.7-6.1 10.6 6 10.6 13.3z" fill="#fdbe5e"/><path id="XMLID_13636_" d="m31.8 36.5c-6.6 0-11.6-8.5-11.6-16.1 0-4.2 2.4-5.6 4.8-6.9 2.3-1.3 4.7-2.6 5.8-6.7.7-2.4 2.3-2.4 3-2.3 3.9.5 9.6 9.9 9.6 15.9 0 7.6-5 16.1-11.6 16.1zm1.6-30c-.2 0-.5.1-.7.9-1.4 5-4.4 6.6-6.8 7.9-2.3 1.2-3.7 2.1-3.7 5.1 0 7.2 4.7 14.1 9.6 14.1s9.6-6.9 9.6-14.1c0-5.5-5.4-13.6-7.8-14-.1.1-.1.1-.2.1z" fill="#193651"/></g><g id="XMLID_4825_"><g id="XMLID_4830_"><path id="XMLID_13635_" d="m24 52h2v2h-2z" fill="#193651"/></g><g id="XMLID_4829_"><path id="XMLID_13624_" d="m30.8 52h2v2h-2z" fill="#193651"/></g><g id="XMLID_4828_"><path id="XMLID_13619_" d="m37.5 52h2v2h-2z" fill="#193651"/></g></g></g></g></svg>