<svg id="Outline_and_Glyph" viewBox="0 0 32 32" xmlns="http://www.w3.org/2000/svg"><path d="m5 11h22c1.654 0 3-1.346 3-3s-1.346-3-3-3h-22c-1.654 0-3 1.346-3 3s1.346 3 3 3zm0-4h22c.551 0 1 .449 1 1s-.449 1-1 1h-22c-.551 0-1-.449-1-1s.449-1 1-1z"/><path d="m5 19h22c1.654 0 3-1.346 3-3s-1.346-3-3-3h-22c-1.654 0-3 1.346-3 3s1.346 3 3 3zm0-4h22c.551 0 1 .449 1 1s-.449 1-1 1h-22c-.551 0-1-.449-1-1s.449-1 1-1z"/><path d="m5 27h22c1.654 0 3-1.346 3-3s-1.346-3-3-3h-22c-1.654 0-3 1.346-3 3s1.346 3 3 3zm0-4h22c.551 0 1 .449 1 1s-.449 1-1 1h-22c-.551 0-1-.449-1-1s.449-1 1-1z"/></svg>