<svg id="Layer_1" height="512" viewBox="0 0 512 512" width="512" xmlns="http://www.w3.org/2000/svg" data-name="Layer 1"><path d="m9.354 510.554a16 16 0 0 0 17.124-2.462l119.614-103.636a48.4 48.4 0 0 1 33.396-12.456h249.512a83.094 83.094 0 0 0 83-83v-226a83.094 83.094 0 0 0 -83-83h-346a83.094 83.094 0 0 0 -83 83v413a16 16 0 0 0 9.354 14.554zm22.646-427.554a51.058 51.058 0 0 1 51-51h346a51.058 51.058 0 0 1 51 51v226a51.058 51.058 0 0 1 -51 51h-249.512a80.825 80.825 0 0 0 -54.35 20.271l-93.138 80.696zm79.641 60a16 16 0 0 1 16-16h256.719a16 16 0 0 1 0 32h-256.719a16 16 0 0 1 -16-16zm16 122a16 16 0 0 1 0-32h256.719a16 16 0 0 1 0 32z"/></svg>