<svg id="Layer_1" enable-background="new 0 0 24 24" height="24" viewBox="0 0 24 24" width="24" xmlns="http://www.w3.org/2000/svg"><g><path d="m23.414.586c-.781-.781-2.047-.781-2.828 0l-9.586 9.585-3.586-3.585c-.78-.781-2.048-.781-2.828 0-.781.781-.781 2.047 0 2.828l5 5c.39.391.902.586 1.414.586s1.024-.195 1.414-.586l11-11c.781-.781.781-2.047 0-2.828z"/><path d="m21 10c-.553 0-1 .448-1 1v7c0 1.103-.897 2-2 2h-14c-1.103 0-2-.897-2-2v-14c0-1.103.897-2 2-2h11c.553 0 1-.448 1-1s-.447-1-1-1h-11c-2.2 0-4 1.8-4 4v14c0 2.2 1.8 4 4 4h14c2.2 0 4-1.8 4-4v-7c0-.552-.447-1-1-1z"/></g></svg>